<?xml version="1.0" encoding="UTF-8" standalone="no"?>
<svg width="100px" height="100px" viewBox="0 0 100 100" version="1.1" xmlns="http://www.w3.org/2000/svg" xmlns:xlink="http://www.w3.org/1999/xlink">
    <!-- Generator: Sketch 40.1 (33804) - http://www.bohemiancoding.com/sketch -->
    <title>Slice 2</title>
    <desc>Created with Sketch.</desc>
    <defs></defs>
    <g id="Page-1" stroke="none" stroke-width="1" fill="none" fill-rule="evenodd">
        <rect id="Rectangle" fill="#FFFFFF" x="0" y="0" width="100" height="100"></rect>
        <g id="gathercontent" transform="translate(18.000000, 18.000000)" fill="#0AB3C4">
            <g id="Slice-1">
                <g id="Page-1">
                    <g id="gathercontent">
                        <g id="Group">
                            <path d="M49.3037037,5.84691358 C52.1481481,5.84691358 54.4395062,8.1382716 54.4395062,10.982716 C54.4395062,12.6419753 54.2024691,39.2691358 56.8098765,56.6518519 C41.8765432,54.5975309 16.9876543,54.4395062 11.3777778,54.4395062 L10.982716,54.4395062 C8.1382716,54.4395062 5.84691358,52.1481481 5.84691358,49.3037037 L5.84691358,10.982716 C5.84691358,8.1382716 8.1382716,5.84691358 10.982716,5.84691358 L49.3037037,5.84691358 L49.3037037,5.84691358 L49.3037037,5.84691358 Z M49.3037037,0 L10.982716,0 C4.89876543,0 0,4.89876543 0,10.982716 L0,49.3037037 C0,55.3876543 4.89876543,60.2864198 10.982716,60.2864198 L11.3777778,60.2864198 C15.5654321,60.2864198 50.4098765,60.3654321 62.182716,63.6049383 C62.2617284,63.6049383 62.4197531,63.6839506 62.4987654,63.6839506 C63.2888889,63.6839506 63.9209877,62.8938272 63.6839506,62.1037037 C59.891358,46.4592593 60.2074074,10.982716 60.2074074,10.982716 C60.2864198,4.89876543 55.3876543,0 49.3037037,0 L49.3037037,0 L49.3037037,0 L49.3037037,0 Z" id="Shape"></path>
                            <rect id="Rectangle-path" x="12.8" y="17.382716" width="20.8592593" height="5.84691358"></rect>
                            <rect id="Rectangle-path" x="12.8" y="27.2592593" width="34.7654321" height="5.84691358"></rect>
                            <rect id="Rectangle-path" x="12.8" y="37.2148148" width="27.8123457" height="5.84691358"></rect>
                        </g>
                    </g>
                </g>
            </g>
        </g>
    </g>
</svg>