<?xml version="1.0" encoding="UTF-8" standalone="no"?>
<svg width="286px" height="286px" viewBox="0 0 286 286" version="1.1" xmlns="http://www.w3.org/2000/svg" xmlns:xlink="http://www.w3.org/1999/xlink" xmlns:sketch="http://www.bohemiancoding.com/sketch/ns">
    <!-- Generator: Sketch 3.4.2 (15855) - http://www.bohemiancoding.com/sketch -->
    <title>Untitled 4</title>
    <desc>Created with Sketch.</desc>
    <defs></defs>
    <g id="Page-1" stroke="none" stroke-width="1" fill="none" fill-rule="evenodd" sketch:type="MSPage">
        <g id="instagram" sketch:type="MSLayerGroup" fill="#2F618D">
            <path d="M252.3,121.1 L227.6,121.1 C229.4,128.1 230.5,135.4 230.5,143 C230.5,191.3 191.3,230.5 143,230.5 C94.7,230.5 55.5,191.3 55.5,143 C55.5,135.4 56.6,128.1 58.4,121.1 L33.7,121.1 L33.7,241.4 C33.7,247.4 38.6,252.3 44.6,252.3 L241.4,252.3 C247.4,252.3 252.3,247.4 252.3,241.4 L252.3,121.1 L252.3,121.1 L252.3,121.1 Z M252.3,44.6 C252.3,38.6 247.4,33.7 241.4,33.7 L208.6,33.7 C202.6,33.7 197.7,38.6 197.7,44.6 L197.7,77.4 C197.7,83.4 202.6,88.3 208.6,88.3 L241.4,88.3 C247.4,88.3 252.3,83.4 252.3,77.4 L252.3,44.6 L252.3,44.6 Z M143,88.3 C112.8,88.3 88.3,112.8 88.3,143 C88.3,173.2 112.8,197.7 143,197.7 C173.2,197.7 197.7,173.2 197.7,143 C197.7,112.8 173.2,88.3 143,88.3 L143,88.3 Z M252.3,285.1 L33.7,285.1 C15.6,285.1 0.9,270.4 0.9,252.3 L0.9,33.7 C0.9,15.6 15.6,0.9 33.7,0.9 L252.4,0.9 C270.5,0.9 285.2,15.6 285.2,33.7 L285.2,252.4 C285.1,270.4 270.5,285.1 252.3,285.1 L252.3,285.1 Z" id="Shape" sketch:type="MSShapeGroup"></path>
        </g>
    </g>
</svg>