<?xml version="1.0" encoding="UTF-8" standalone="no"?>
<svg width="65px" height="65px" viewBox="0 0 65 65" version="1.1" xmlns="http://www.w3.org/2000/svg" xmlns:xlink="http://www.w3.org/1999/xlink" xmlns:sketch="http://www.bohemiancoding.com/sketch/ns">
    <!-- Generator: Sketch 3.4.2 (15855) - http://www.bohemiancoding.com/sketch -->
    <title>Untitled 2</title>
    <desc>Created with Sketch.</desc>
    <defs></defs>
    <g id="Page-1" stroke="none" stroke-width="1" fill="none" fill-rule="evenodd" sketch:type="MSPage">
        <rect id="Rectangle-1" fill="#FFFFFF" sketch:type="MSShapeGroup" x="0" y="0" width="65" height="65"></rect>
        <g id="marker-charging" sketch:type="MSLayerGroup" transform="translate(16.000000, 7.000000)">
            <g id="marker-shape-link" stroke="#66A415" fill="#8CC63F" sketch:type="MSShapeGroup">
                <path d="M31.86,24.264 C32.911,22.095 33.5,19.66 33.5,17.088 C33.5,7.9787 26.113,0.594 17,0.594 C7.8873,0.5942 0.5,7.9787 0.5,17.088 C0.5,19.66 1.0893,22.095 2.1398,24.264 C5.9107,33.001 12.066,41.862 16.9998,50.594 C21.9338,41.862 28.0888,33.001 31.8598,24.264" id="marker-shape"></path>
            </g>
            <g id="marker-bolt-link" transform="translate(8.000000, 6.000000)" fill="#FFFFFF" sketch:type="MSShapeGroup">
                <path d="M11.974,0.5942 C7.834,5.941 4.198,10.585 0,16.0002 C2.339,16.0562 3.719,15.9392 6,16.0002 C5.536,19.2532 5.42,23.3402 4.961,26.5542 C4.998,26.5652 5.022,26.5842 5.053,26.5942 C9.195,21.2512 12.829,16.4032 17,11.0002 C14.696,10.9402 13.256,11.0562 11,11.0002 C11.447,7.7412 11.625,3.8615 12.082,0.6312" id="marker-bolt"></path>
            </g>
        </g>
    </g>
</svg>