<?xml version="1.0" encoding="UTF-8" standalone="no"?>
<svg width="244px" height="310px" viewBox="0 0 244 310" version="1.1" xmlns="http://www.w3.org/2000/svg" xmlns:xlink="http://www.w3.org/1999/xlink" xmlns:sketch="http://www.bohemiancoding.com/sketch/ns">
    <!-- Generator: Sketch 3.4.2 (15855) - http://www.bohemiancoding.com/sketch -->
    <title>Untitled 7</title>
    <desc>Created with Sketch.</desc>
    <defs></defs>
    <g id="Page-1" stroke="none" stroke-width="1" fill="none" fill-rule="evenodd" sketch:type="MSPage">
        <g id="stackoverflow" sketch:type="MSLayerGroup">
            <path d="M160.8,268.2 L38.8,268.3 L38.8,242.3 L160.8,242.2 L160.8,268.2 L160.8,268.2 Z M243.2,120.7 L222.4,0.5 L196.7,5 L217.6,125.2 L243.2,120.7 L243.2,120.7 Z M163.8,208.8 L42.4,197.6 L40,223.5 L161.4,234.7 L163.8,208.8 L163.8,208.8 Z M171.8,174.8 L54,143.1 L47.2,168.3 L165,200 L171.8,174.8 L171.8,174.8 Z M187.2,145 L82.2,83 L69,105.4 L174,167.4 L187.2,145 L187.2,145 Z M212.9,126.7 L144.2,25.9 L122.7,40.6 L191.4,141.4 L212.9,126.7 L212.9,126.7 Z" id="Shape" fill="#F68004" sketch:type="MSShapeGroup"></path>
            <path d="M181.5,182.5 L181.5,289 L21.6,289 L21.6,182.5 L0.8,182.5 L0.8,309.4 L202.3,309.4 L202.3,182.5 L181.5,182.5 L181.5,182.5 Z" id="Path" fill="#BCBBBB" sketch:type="MSShapeGroup"></path>
        </g>
    </g>
</svg>