<?xml version="1.0" encoding="UTF-8" standalone="no"?>
<svg width="100px" height="100px" viewBox="0 0 100 100" version="1.1" xmlns="http://www.w3.org/2000/svg" xmlns:xlink="http://www.w3.org/1999/xlink" xmlns:sketch="http://www.bohemiancoding.com/sketch/ns">
    <!-- Generator: Sketch 3.4.2 (15855) - http://www.bohemiancoding.com/sketch -->
    <title>Untitled 3</title>
    <desc>Created with Sketch.</desc>
    <defs></defs>
    <g id="Page-1" stroke="none" stroke-width="1" fill="none" fill-rule="evenodd" sketch:type="MSPage">
        <g id="team-absence" sketch:type="MSLayerGroup">
            <g id="logo" sketch:type="MSShapeGroup">
                <g id="Page-1">
                    <rect id="Rectangle-1" fill="#C63D0F" x="0" y="0" width="100" height="100"></rect>
                    <g id="graph" transform="translate(8.000000, 23.000000)" fill="#F6F6F6">
                        <path d="M75.924,0 C71.561,0 68.011,3.55 68.011,7.913 C68.011,9.374 68.416,10.738 69.109,11.914 L56.486,24.536 C55.356,23.914 54.06,23.558 52.682,23.558 C49.491,23.558 46.74,25.461 45.49,28.189 L33.195,25.8 C32.392,22.281 29.244,19.646 25.486,19.646 C21.123,19.646 17.573,23.196 17.573,27.559 C17.573,28.868 17.898,30.102 18.463,31.19 L11.249,38.406 C10.233,37.931 9.106,37.659 7.914,37.659 C3.55,37.658 0,41.208 0,45.571 C0,49.934 3.55,53.484 7.913,53.484 C12.277,53.484 15.827,49.934 15.827,45.571 C15.827,44.364 15.548,43.224 15.062,42.2 L22.412,34.849 C23.357,35.249 24.396,35.471 25.486,35.471 C28.556,35.471 31.216,33.711 32.528,31.151 L45.066,33.588 C45.995,36.925 49.054,39.385 52.683,39.385 C57.046,39.385 60.596,35.835 60.596,31.472 C60.596,30.453 60.396,29.483 60.043,28.587 L73.272,15.359 C74.102,15.655 74.993,15.826 75.923,15.826 C80.286,15.826 83.836,12.276 83.836,7.913 C83.836,3.55 80.287,0 75.924,0 L75.924,0 L75.924,0 Z M7.913,48.104 C6.516,48.104 5.38,46.967 5.38,45.571 C5.38,44.174 6.516,43.038 7.913,43.038 C9.31,43.038 10.447,44.174 10.447,45.571 C10.447,46.968 9.311,48.104 7.913,48.104 L7.913,48.104 L7.913,48.104 Z M25.486,30.092 C24.089,30.092 22.952,28.955 22.952,27.559 C22.952,26.162 24.089,25.026 25.486,25.026 C26.883,25.026 28.02,26.162 28.02,27.559 C28.02,28.955 26.883,30.092 25.486,30.092 L25.486,30.092 L25.486,30.092 Z M52.683,34.005 C51.286,34.005 50.15,32.868 50.15,31.472 C50.15,30.075 51.286,28.939 52.683,28.939 C54.079,28.939 55.216,30.075 55.216,31.472 C55.216,32.868 54.079,34.005 52.683,34.005 L52.683,34.005 L52.683,34.005 Z M75.924,10.446 C74.527,10.446 73.391,9.31 73.391,7.913 C73.391,6.516 74.527,5.38 75.924,5.38 C77.32,5.38 78.457,6.516 78.457,7.913 C78.457,9.31 77.32,10.446 75.924,10.446 L75.924,10.446 L75.924,10.446 Z" id="Shape"></path>
                    </g>
                </g>
            </g>
        </g>
    </g>
</svg>