<?xml version="1.0" encoding="UTF-8" standalone="no"?>
<svg width="331px" height="276px" viewBox="0 0 331 276" version="1.1" xmlns="http://www.w3.org/2000/svg" xmlns:xlink="http://www.w3.org/1999/xlink" xmlns:sketch="http://www.bohemiancoding.com/sketch/ns">
    <!-- Generator: Sketch 3.4.2 (15855) - http://www.bohemiancoding.com/sketch -->
    <title>Untitled 5</title>
    <desc>Created with Sketch.</desc>
    <defs></defs>
    <g id="Page-1" stroke="none" stroke-width="1" fill="none" fill-rule="evenodd" sketch:type="MSPage">
        <g id="twitter" sketch:type="MSLayerGroup" fill="#5AA8DF">
            <path d="M299,70 C302.820684,142.815861 265.697425,211.67966 202.767599,248.511497 C139.837773,285.343335 61.6167775,283.988717 0,245 C34.9256369,247.296332 69.4689504,236.612833 97,215 C70.228832,211.809965 47.6690781,193.528785 39,168 C49.3527058,169.663539 59.9468801,168.980044 70,166 C37.9429999,159.968053 14.3014158,132.593588 13,100 C21.8928091,103.56528 31.4228423,105.267072 41,105 C13.4253866,83.6680758 5.75109696,45.2966274 23,15 C57.7045038,57.8581394 108.933423,84.0175875 164,87 C154.569029,56.3527714 168.174724,23.3197588 196.454297,8.20481429 C224.733871,-6.91013022 259.758425,0.130853003 280,25 C295.321504,22.2502295 309.940266,16.4707186 323,8 C318.024664,24.2284318 306.898585,37.8668506 292,46 C305.540838,44.6295769 318.738736,40.9070929 331,35 C325.12183,50.2803586 313.69386,62.7797008 299,70" id="Shape" sketch:type="MSShapeGroup"></path>
        </g>
    </g>
</svg>